# Alias OBJ Model File
# Exported from SketchUp, (c) 2000-2012 Trimble Navigation Limited
# File units = meters

mtllib obj.mtl

g Mesh1 Simple_Template___Feet_and_Inches1 Model

usemtl Color_E03
v 2.08712 5.73523 -2.65505
vt -119.191 263.6
vn -3.79149e-15 -2.0679e-12 -1
v 2.17039 7.78489 -2.65505
vt -122.469 344.295
v 2.29534 6.75329 -2.65505
vt -127.389 303.681
f 1/1/1 2/2/1 3/3/1

v 1.72513 8.7238 -2.65505
vt -104.939 381.26
f 2/2/1 1/1/1 4/4/1

v -0.940329 -0.960204 -2.65505
vt 6.78523e-13 3.5147e-14
f 4/4/1 1/1/1 5/5/1

vt 3.16168e-13 23.4375
vn 0.911181 -0.412006 8.45756e-13
vt -289.294 23.4375
v 2.08712 5.73523 -1.57396
vt -289.294 -19.125
v -0.940329 -0.960204 -1.57396
vt 2.69328e-13 -19.125
f 5/6/2 1/7/2 6/8/2 7/9/2 

vt -282.137 23.4375
vn 0.979719 -0.200376 4.11788e-13
vt -323.048 23.4375
vn 0.999176 -0.0405908 8.18536e-14
v 2.29534 6.75329 -1.57396
vt -323.048 -19.125
vt -282.137 -19.125
f 1/10/3 3/11/4 8/12/4 6/13/3 

vt -286.159 23.4375
vt -327.07 23.4375
vn 0.96059 0.277968 -5.77934e-13
v 2.17039 7.78489 -1.57396
vt -327.07 -19.125
vt -286.159 -19.125
f 3/14/4 2/15/5 9/16/5 8/17/4 

vt -258.611 23.4375
vt -299.522 23.4375
vn 0.823095 0.567904 -1.17878e-12
v 1.72513 8.7238 -1.57396
vt -299.522 -19.125
vt -258.611 -19.125
f 2/18/5 4/19/6 10/20/6 9/21/5 

vt -202.327 23.4375
v 1.00541 9.47335 -2.65505
vt -243.238 23.4375
vn 0.600846 0.799365 -1.65317e-12
v 1.00541 9.47335 -1.57396
vt -243.238 -19.125
vt -202.327 -19.125
f 4/22/6 11/23/7 12/24/7 10/25/6 

v 1.05552 6.81471 -2.65505
vt -78.5766 306.099
vt -76.6041 410.77
f 13/26/1 11/27/1 4/4/1

v 1.00564 7.33366 -2.65505
vt -76.6128 326.53
f 11/27/1 13/26/1 14/28/1

vt 317.702 23.4375
vn -0.974407 -0.22479 4.69514e-13
vt 297.176 23.4375
vn -0.999385 0.035065 -6.97426e-14
v 1.05552 6.81471 -1.57396
vt 297.176 -19.125
v 1.00564 7.33366 -1.57396
vt 317.702 -19.125
f 14/29/8 13/30/9 15/31/9 16/32/8 

vt 314.874 23.4375
v 0.969386 6.30053 -2.65505
vt 294.349 23.4375
vn -0.956256 0.29253 -6.01697e-13
v 0.969386 6.30053 -1.57396
vt 294.349 -19.125
vt 314.874 -19.125
f 13/33/9 17/34/10 18/35/10 15/36/9 

vt -75.1857 285.856
f 4/4/1 17/37/1 13/26/1

f 4/4/1 5/5/1 17/37/1

v 0.753111 5.82617 -2.65505
vt -66.6709 267.18
f 17/37/1 5/5/1 19/38/1

v 0.421431 5.42394 -2.65505
vt -53.6126 251.344
f 19/38/1 5/5/1 20/39/1

v -0.00305148 5.12127 -2.65505
vt -36.9007 239.428
f 20/39/1 5/5/1 21/40/1

v -0.491408 4.93877 -2.65505
vt -17.6741 232.243
f 21/40/1 5/5/1 22/41/1

v -1.01036 4.88889 -2.65505
vt 2.75699 230.279
f 22/41/1 5/5/1 23/42/1

v -1.52453 4.97502 -2.65505
vt 23.0002 233.67
f 23/42/1 5/5/1 24/43/1

v -3.96778 5.73523 -2.65505
vt 119.191 263.6
f 24/43/1 5/5/1 25/44/1

vt 289.294 23.4375
vn -0.911181 -0.412006 8.53399e-13
v -3.96778 5.73523 -1.57396
vt 289.294 -19.125
f 25/45/11 5/6/11 7/9/11 26/46/11 

vt -6.7975e-13 -3.72726e-14
vn 1.36212e-15 2.06835e-12 1
v -1.52453 4.97502 -1.57396
vt -23.0002 233.67
f 7/47/12 27/48/12 26/1/12

v -1.01036 4.88889 -1.57396
vt -2.75699 230.279
f 7/47/12 28/49/12 27/48/12

v -0.491408 4.93877 -1.57396
vt 17.6741 232.243
f 7/47/12 29/50/12 28/49/12

v -0.00305148 5.12127 -1.57396
vt 36.9007 239.428
f 7/47/12 30/51/12 29/50/12

v 0.421431 5.42394 -1.57396
vt 53.6126 251.344
f 7/47/12 31/52/12 30/51/12

v 0.753111 5.82617 -1.57396
vt 66.6709 267.18
f 7/47/12 32/53/12 31/52/12

vt 75.1857 285.856
f 7/47/12 18/54/12 32/53/12

vt 104.939 381.26
f 7/47/12 10/55/12 18/54/12

f 6/44/12 10/55/12 7/47/12

vt 122.469 344.295
f 6/44/12 9/56/12 10/55/12

vt 127.389 303.681
f 9/56/12 6/44/12 8/57/12

vt 78.5766 306.099
f 18/54/12 10/55/12 15/58/12

vt 76.6041 410.77
f 12/59/12 15/58/12 10/55/12

vt 76.6128 326.53
f 15/58/12 12/59/12 16/60/12

v 0.823138 7.82202 -1.57396
vt 69.4279 345.757
f 16/60/12 12/59/12 33/61/12

v 0.0853484 9.95635 -1.57396
vt 40.381 429.786
f 33/61/12 12/59/12 34/62/12

vt -123.104 23.4375
v 0.0853484 9.95635 -2.65505
vt -164.015 23.4375
vn 0.31673 0.948516 -1.95427e-12
vt -164.015 -19.125
vt -123.104 -19.125
f 11/63/7 35/64/13 34/65/13 12/66/7 

v 0.823138 7.82202 -2.65505
vt -69.4279 345.757
vt -40.381 429.786
f 11/27/1 36/67/1 35/68/1

f 11/27/1 14/28/1 36/67/1

vt 299.577 23.4375
vn -0.883025 -0.469325 9.78903e-13
vt 279.052 23.4375
vt 279.052 -19.125
vt 299.577 -19.125
f 36/69/14 14/70/8 16/71/8 33/72/14 

v 0.520464 8.2465 -2.65505
vt 261.737 23.4375
vn -0.731467 -0.681877 1.41637e-12
vt 241.212 23.4375
vt 241.212 -19.125
v 0.520464 8.2465 -1.57396
vt 261.737 -19.125
f 37/73/15 36/74/14 33/75/14 38/76/15 

vt -57.5116 362.469
f 35/68/1 36/67/1 37/77/1

v 0.11824 8.57818 -2.65505
vt -41.6759 375.527
f 35/68/1 37/77/1 39/78/1

vt 206.759 23.4375
vn -0.53006 -0.84796 1.75197e-12
vt 186.233 23.4375
vt 186.233 -19.125
v 0.11824 8.57818 -1.57396
vt 206.759 -19.125
f 39/79/16 37/80/15 38/81/15 40/82/16 

vt 57.5116 362.469
vt 41.6759 375.527
f 38/83/12 34/62/12 40/84/12

f 33/61/12 34/62/12 38/83/12

v -0.356125 8.79445 -1.57396
vt 23.0002 384.042
f 40/84/12 34/62/12 41/85/12

v -0.940329 10.1231 -1.57396
vt -7.5791e-13 436.35
f 41/85/12 34/62/12 42/86/12

vt -29.0984 23.4375
v -0.940329 10.1231 -2.65505
vt -70.0094 23.4375
vn 4.06116e-13 1 -2.05882e-12
vt -70.0094 -19.125
vt -29.0984 -19.125
f 35/87/13 43/88/17 42/89/17 34/90/13 

v -0.356125 8.79445 -2.65505
vt -23.0002 384.042
vt 6.35891e-13 436.35
f 35/68/1 44/91/1 43/92/1

f 35/68/1 39/78/1 44/91/1

vt 138.39 23.4375
vn -0.29253 -0.956256 1.97238e-12
vt 117.864 23.4375
vt 117.864 -19.125
vt 138.39 -19.125
f 44/93/18 39/94/16 40/95/16 41/96/18 

v -0.870302 8.88059 -2.65505
vt 61.289 23.4375
vn -0.035065 -0.999385 2.07006e-12
vt 40.7638 23.4375
vt 40.7638 -19.125
v -0.870302 8.88059 -1.57396
vt 61.289 -19.125
f 45/97/19 44/98/18 41/99/18 46/100/19 

vt -2.75699 387.433
f 43/92/1 44/91/1 45/101/1

v -1.38925 8.8307 -2.65505
vt 17.6741 385.469
f 43/92/1 45/101/1 47/102/1

vt -19.289 23.4375
vn 0.22479 -0.974407 2.02519e-12
vt -39.8142 23.4375
vt -39.8142 -19.125
v -1.38925 8.8307 -1.57396
vt -19.289 -19.125
f 47/103/20 45/104/19 46/105/19 48/106/20 

vt 2.75699 387.433
vt -17.6741 385.469
f 46/107/12 42/86/12 48/108/12

f 41/85/12 42/86/12 46/107/12

v -1.96601 9.95635 -1.57396
f 48/108/12 42/86/12 49/68/12

vt 70.0094 23.4375
v -1.96601 9.95635 -2.65505
vt 29.0984 23.4375
vn -0.31673 0.948516 -1.96418e-12
vt 29.0984 -19.125
vt 70.0094 -19.125
f 43/109/17 50/110/21 49/111/21 42/112/17 

f 43/92/1 47/102/1 50/62/1

v -1.87761 8.64821 -2.65505
vt 36.9007 378.284
f 50/62/1 47/102/1 51/113/1

vt -97.8531 23.4375
vn 0.469325 -0.883025 1.82896e-12
vt -118.378 23.4375
vt -118.378 -19.125
v -1.87761 8.64821 -1.57396
vt -97.8531 -19.125
f 51/114/22 47/115/20 48/116/20 52/117/22 

vt -36.9007 378.284
f 48/108/12 49/68/12 52/118/12

v -2.30209 8.34553 -1.57396
vt -53.6126 366.368
f 52/118/12 49/68/12 53/119/12

v -2.88607 9.47335 -1.57396
f 53/119/12 49/68/12 54/27/12

vt 164.015 23.4375
v -2.88607 9.47335 -2.65505
vt 123.104 23.4375
vn -0.600846 0.799365 -1.66431e-12
vt 123.104 -19.125
vt 164.015 -19.125
f 50/120/21 55/121/23 54/122/23 49/123/21 

v -2.30209 8.34553 -2.65505
vt 53.6126 366.368
f 50/62/1 56/124/1 55/59/1

f 50/62/1 51/113/1 56/124/1

vt -169.049 23.4375
vn 0.681877 -0.731467 1.50657e-12
vt -189.575 23.4375
vt -189.575 -19.125
vt -169.049 -19.125
f 56/125/24 51/126/22 52/127/22 53/128/24 

v -2.63377 7.94331 -2.65505
vt -228.026 23.4375
vn 0.84796 -0.53006 1.0907e-12
vt -248.551 23.4375
vt -248.551 -19.125
v -2.63377 7.94331 -1.57396
vt -228.026 -19.125
f 57/129/25 56/130/24 53/131/24 58/132/25 

vt 66.6709 350.532
f 55/59/1 56/124/1 57/133/1

v -2.85004 7.46894 -2.65505
vt 75.1857 331.856
f 55/59/1 57/133/1 59/134/1

vt -270.763 23.4375
vn 0.956256 -0.29253 6.0027e-13
vt -291.288 23.4375
vt -291.288 -19.125
v -2.85004 7.46894 -1.57396
vt -270.763 -19.125
f 59/135/26 57/136/25 58/137/25 60/138/26 

vt -66.6709 350.532
vt -75.1857 331.856
f 58/139/12 54/27/12 60/140/12

f 53/119/12 54/27/12 58/139/12

v -2.93618 6.95477 -1.57396
vt -78.5766 311.613
f 60/140/12 54/27/12 61/141/12

v -3.60579 8.7238 -1.57396
f 61/141/12 54/27/12 62/4/12

vt 243.238 23.4375
v -3.60579 8.7238 -2.65505
vt 202.327 23.4375
vn -0.823095 0.567904 -1.17907e-12
vt 202.327 -19.125
vt 243.238 -19.125
f 55/142/23 63/143/27 62/144/27 54/145/23 

v -2.93618 6.95477 -2.65505
vt 78.5766 311.613
f 55/59/1 64/146/1 63/55/1

f 55/59/1 59/134/1 64/146/1

vt -294.349 23.4375
vn 0.999385 -0.035065 6.6836e-14
vt -314.874 23.4375
vt -314.874 -19.125
vt -294.349 -19.125
f 64/147/28 59/148/26 60/149/26 61/150/28 

v -2.88629 6.43582 -2.65505
vt -297.176 23.4375
vn 0.974407 0.22479 -4.68709e-13
vt -317.702 23.4375
vt -317.702 -19.125
v -2.88629 6.43582 -1.57396
vt -297.176 -19.125
f 65/151/29 64/152/28 61/153/28 66/154/29 

vt 76.6128 291.182
f 65/155/1 25/44/1 64/146/1

v -2.7914 6.18189 -2.65505
vt 72.8769 281.185
f 67/156/1 25/44/1 65/155/1

v -2.7038 5.94746 -2.65505
vt 69.4279 271.955
f 68/157/1 25/44/1 67/156/1

v -2.40112 5.52298 -2.65505
vt 57.5116 255.243
f 69/158/1 25/44/1 68/157/1

v -1.9989 5.1913 -2.65505
vt 41.6759 242.185
f 70/159/1 25/44/1 69/158/1

f 24/43/1 25/44/1 70/159/1

vt -117.864 23.4375
vn 0.29253 0.956256 -1.98387e-12
vt -138.39 23.4375
vn 0.53006 0.84796 -1.76534e-12
v -1.9989 5.1913 -1.57396
vt -138.39 -19.125
vt -117.864 -19.125
f 24/160/30 70/161/31 71/162/31 27/163/30 

vt -186.233 23.4375
vt -206.759 23.4375
vn 0.731467 0.681877 -1.4213e-12
v -2.40112 5.52298 -1.57396
vt -206.759 -19.125
vt -186.233 -19.125
f 70/164/31 69/165/32 72/166/32 71/167/31 

vt -241.212 23.4375
vt -261.737 23.4375
vn 0.883025 0.469325 -9.75872e-13
v -2.7038 5.94746 -1.57396
vt -261.737 -19.125
vt -241.212 -19.125
f 69/168/32 68/169/33 73/170/33 72/171/32 

vt -279.052 23.4375
vt -288.905 23.4375
vn 0.93673 0.350052 -7.26531e-13
v -2.7914 6.18189 -1.57396
vt -288.905 -19.125
vt -279.052 -19.125
f 68/172/33 67/173/34 74/174/34 73/175/33 

vt -299.577 23.4375
vt -299.577 -19.125
f 67/173/34 65/176/29 66/177/29 74/174/34 

vt -72.8769 281.185
vt -76.6128 291.182
f 26/1/12 74/178/12 66/179/12

vt -69.4279 271.955
f 26/1/12 73/180/12 74/178/12

vt -57.5116 255.243
f 26/1/12 72/181/12 73/180/12

vt -41.6759 242.185
f 26/1/12 71/182/12 72/181/12

f 26/1/12 27/48/12 71/182/12

f 26/1/12 66/179/12 61/141/12

f 26/1/12 61/141/12 62/4/12

v -4.05105 7.78489 -1.57396
f 26/1/12 62/4/12 75/2/12

vt 299.522 23.4375
v -4.05105 7.78489 -2.65505
vt 258.611 23.4375
vn -0.96059 0.277968 -5.75151e-13
vt 258.611 -19.125
vt 299.522 -19.125
f 63/183/27 76/184/35 75/185/35 62/186/27 

f 63/55/1 25/44/1 76/56/1

f 64/146/1 25/44/1 63/55/1

v -4.176 6.75329 -2.65505
f 76/56/1 25/44/1 77/57/1

vt 323.048 23.4375
vn -0.999176 -0.0405908 8.34856e-14
vt 282.137 23.4375
vn -0.979719 -0.200376 4.14193e-13
vt 282.137 -19.125
v -4.176 6.75329 -1.57396
vt 323.048 -19.125
f 77/187/36 25/188/37 26/189/37 78/190/36 

f 26/1/12 75/2/12 78/3/12

vt 327.07 23.4375
vt 286.159 23.4375
vt 286.159 -19.125
vt 327.07 -19.125
f 76/191/35 77/192/36 78/193/36 75/194/35 

vt -40.7638 23.4375
vn 0.035065 0.999385 -2.07043e-12
vt -61.289 23.4375
vt -61.289 -19.125
vt -40.7638 -19.125
f 23/195/38 24/196/30 27/197/30 28/198/38 

vt 39.8142 23.4375
vn -0.22479 0.974407 -2.02037e-12
vt 19.289 23.4375
vt 19.289 -19.125
vt 39.8142 -19.125
f 22/199/39 23/200/38 28/201/38 29/202/39 

vt 118.378 23.4375
vn -0.469325 0.883025 -1.83161e-12
vt 97.8531 23.4375
vt 97.8531 -19.125
vt 118.378 -19.125
f 21/203/40 22/204/39 29/205/39 30/206/40 

vt 189.575 23.4375
vn -0.681877 0.731467 -1.51576e-12
vt 169.049 23.4375
vt 169.049 -19.125
vt 189.575 -19.125
f 20/207/41 21/208/40 30/209/40 31/210/41 

vt 248.551 23.4375
vn -0.84796 0.53006 -1.09596e-12
vt 228.026 23.4375
vt 228.026 -19.125
vt 248.551 -19.125
f 19/211/42 20/212/41 31/213/41 32/214/42 

vt 291.288 23.4375
vt 270.763 23.4375
vt 270.763 -19.125
vt 291.288 -19.125
f 17/215/10 19/216/42 32/217/42 18/218/10 

g Mesh2 Simple_Template___Feet_and_Inches2 Model

v 2.08712 5.73523 -2.65505
v 2.17039 7.78489 -2.65505
v 2.29534 6.75329 -2.65505
f 79/1/1 80/2/1 81/3/1

f 80/2/1 79/1/1 4/4/1

v -0.940329 -0.960204 -2.65505
f 4/4/1 79/1/1 82/5/1

v 2.08712 5.73523 -1.57396
v -0.940329 -0.960204 -1.57396
f 82/6/2 79/7/2 83/8/2 84/9/2 

f 79/10/3 81/11/4 8/12/4 83/13/3 

f 81/14/4 80/15/5 9/16/5 8/17/4 

v 1.72513 8.7238 -1.57396
f 80/18/5 4/19/6 85/20/6 9/21/5 

v 1.00541 9.47335 -1.57396
f 4/22/6 11/23/7 86/24/7 85/25/6 

f 13/26/1 11/27/1 4/4/1

v 1.00564 7.33366 -2.65505
f 11/27/1 13/26/1 87/28/1

v 1.05552 6.81471 -1.57396
f 87/29/8 13/30/9 88/31/9 16/32/8 

f 13/33/9 17/34/10 18/35/10 88/36/9 

f 4/4/1 17/37/1 13/26/1

f 4/4/1 82/5/1 17/37/1

f 17/37/1 82/5/1 19/38/1

v 0.421431 5.42394 -2.65505
f 19/38/1 82/5/1 89/39/1

f 89/39/1 82/5/1 21/40/1

f 21/40/1 82/5/1 22/41/1

f 22/41/1 82/5/1 23/42/1

v -1.52453 4.97502 -2.65505
f 23/42/1 82/5/1 90/43/1

f 90/43/1 82/5/1 25/44/1

v -3.96778 5.73523 -1.57396
f 25/45/11 82/6/11 84/9/11 91/46/11 

f 84/47/12 27/48/12 91/1/12

f 84/47/12 28/49/12 27/48/12

f 84/47/12 29/50/12 28/49/12

f 84/47/12 30/51/12 29/50/12

f 84/47/12 31/52/12 30/51/12

v 0.753111 5.82617 -1.57396
f 84/47/12 92/53/12 31/52/12

f 84/47/12 18/54/12 92/53/12

f 84/47/12 85/55/12 18/54/12

f 83/44/12 85/55/12 84/47/12

f 83/44/12 9/56/12 85/55/12

f 9/56/12 83/44/12 8/57/12

f 18/54/12 85/55/12 88/58/12

f 86/59/12 88/58/12 85/55/12

f 88/58/12 86/59/12 16/60/12

f 16/60/12 86/59/12 33/61/12

v 0.0853484 9.95635 -1.57396
f 33/61/12 86/59/12 93/62/12

f 11/63/7 35/64/13 93/65/13 86/66/7 

v 0.823138 7.82202 -2.65505
f 11/27/1 94/67/1 35/68/1

f 11/27/1 87/28/1 94/67/1

f 94/69/14 87/70/8 16/71/8 33/72/14 

f 37/73/15 94/74/14 33/75/14 38/76/15 

f 35/68/1 94/67/1 37/77/1

v 0.11824 8.57818 -2.65505
f 35/68/1 37/77/1 95/78/1

f 95/79/16 37/80/15 38/81/15 40/82/16 

f 38/83/12 93/62/12 40/84/12

f 33/61/12 93/62/12 38/83/12

v -0.356125 8.79445 -1.57396
f 40/84/12 93/62/12 96/85/12

f 96/85/12 93/62/12 42/86/12

f 35/87/13 43/88/17 42/89/17 93/90/13 

f 35/68/1 44/91/1 43/92/1

f 35/68/1 95/78/1 44/91/1

f 44/93/18 95/94/16 40/95/16 96/96/18 

f 45/97/19 44/98/18 96/99/18 46/100/19 

f 43/92/1 44/91/1 45/101/1

v -1.38925 8.8307 -2.65505
f 43/92/1 45/101/1 97/102/1

f 97/103/20 45/104/19 46/105/19 48/106/20 

f 46/107/12 42/86/12 48/108/12

f 96/85/12 42/86/12 46/107/12

f 48/108/12 42/86/12 49/68/12

f 43/109/17 50/110/21 49/111/21 42/112/17 

f 43/92/1 97/102/1 50/62/1

f 50/62/1 97/102/1 51/113/1

v -1.87761 8.64821 -1.57396
f 51/114/22 97/115/20 48/116/20 98/117/22 

f 48/108/12 49/68/12 98/118/12

f 98/118/12 49/68/12 53/119/12

f 53/119/12 49/68/12 54/27/12

f 50/120/21 55/121/23 54/122/23 49/123/21 

f 50/62/1 56/124/1 55/59/1

f 50/62/1 51/113/1 56/124/1

f 56/125/24 51/126/22 98/127/22 53/128/24 

v -2.63377 7.94331 -2.65505
f 99/129/25 56/130/24 53/131/24 58/132/25 

f 55/59/1 56/124/1 99/133/1

f 55/59/1 99/133/1 59/134/1

f 59/135/26 99/136/25 58/137/25 60/138/26 

f 58/139/12 54/27/12 60/140/12

f 53/119/12 54/27/12 58/139/12

f 60/140/12 54/27/12 61/141/12

f 61/141/12 54/27/12 62/4/12

v -3.60579 8.7238 -2.65505
f 55/142/23 100/143/27 62/144/27 54/145/23 

v -2.93618 6.95477 -2.65505
f 55/59/1 101/146/1 100/55/1

f 55/59/1 59/134/1 101/146/1

f 101/147/28 59/148/26 60/149/26 61/150/28 

f 65/151/29 101/152/28 61/153/28 66/154/29 

f 65/155/1 25/44/1 101/146/1

v -2.7914 6.18189 -2.65505
f 102/156/1 25/44/1 65/155/1

v -2.7038 5.94746 -2.65505
f 103/157/1 25/44/1 102/156/1

f 69/158/1 25/44/1 103/157/1

v -1.9989 5.1913 -2.65505
f 104/159/1 25/44/1 69/158/1

f 90/43/1 25/44/1 104/159/1

f 90/160/30 104/161/31 71/162/31 27/163/30 

v -2.40112 5.52298 -1.57396
f 104/164/31 69/165/32 105/166/32 71/167/31 

v -2.7038 5.94746 -1.57396
f 69/168/32 103/169/33 106/170/33 105/171/32 

f 103/172/33 102/173/34 74/174/34 106/175/33 

f 102/173/34 65/176/29 66/177/29 74/174/34 

f 91/1/12 74/178/12 66/179/12

f 91/1/12 106/180/12 74/178/12

f 91/1/12 105/181/12 106/180/12

f 91/1/12 71/182/12 105/181/12

f 91/1/12 27/48/12 71/182/12

f 91/1/12 66/179/12 61/141/12

f 91/1/12 61/141/12 62/4/12

v -4.05105 7.78489 -1.57396
f 91/1/12 62/4/12 107/2/12

f 100/183/27 76/184/35 107/185/35 62/186/27 

f 100/55/1 25/44/1 76/56/1

f 101/146/1 25/44/1 100/55/1

f 76/56/1 25/44/1 77/57/1

f 77/187/36 25/188/37 91/189/37 78/190/36 

f 91/1/12 107/2/12 78/3/12

f 76/191/35 77/192/36 78/193/36 107/194/35 

f 23/195/38 90/196/30 27/197/30 28/198/38 

f 22/199/39 23/200/38 28/201/38 29/202/39 

f 21/203/40 22/204/39 29/205/39 30/206/40 

f 89/207/41 21/208/40 30/209/40 31/210/41 

f 19/211/42 89/212/41 31/213/41 92/214/42 

f 17/215/10 19/216/42 92/217/42 18/218/10 

